<svg version="1.1" id="Layer_1" xmlns="http://www.w3.org/2000/svg" xmlns:xlink="http://www.w3.org/1999/xlink" x="0px" y="0px"
	 width="100%" viewBox="0 0 180 168" enable-background="new 0 0 180 168" xml:space="preserve">
<path fill="#FEFEFE" opacity="1.000000" stroke="none" 
	d="
M122.000000,169.000000 
	C81.333336,169.000000 41.166672,169.000000 1.000005,169.000000 
	C1.000004,113.000008 1.000004,57.000011 1.000002,1.000013 
	C60.999989,1.000009 120.999977,1.000009 180.999969,1.000004 
	C180.999985,56.999989 180.999985,112.999977 181.000000,168.999985 
	C161.500000,169.000000 142.000000,169.000000 122.000000,169.000000 
M57.737232,156.975708 
	C63.300350,160.796555 69.447990,161.200211 75.291817,158.507309 
	C87.068375,153.080551 98.497917,153.100510 110.301483,158.387390 
	C116.958038,161.368881 123.845543,160.678207 129.519043,155.872147 
	C140.546082,146.531052 147.600479,134.481781 152.391113,121.052582 
	C126.004089,103.332916 124.685715,83.901657 148.299637,61.261314 
	C139.408203,50.221901 127.680191,45.882824 113.970703,47.530655 
	C107.989159,48.249615 102.318474,51.277988 96.350891,52.492203 
	C92.665375,53.242092 88.579140,53.097855 84.865524,52.370739 
	C79.867561,51.392132 75.152542,48.881912 70.146332,48.047230 
	C50.116665,44.707703 30.192734,60.908279 28.061171,82.582100 
	C25.161875,112.062225 35.610134,136.549133 57.737232,156.975708 
M94.762421,28.371332 
	C91.418060,34.019825 89.399063,39.977638 90.219345,46.625618 
	C106.674850,48.814678 125.013184,25.792391 120.274643,11.871218 
	C109.607361,13.543318 101.099007,18.605202 94.762421,28.371332 
z"/>
<path fill="#010101" opacity="1.000000" stroke="none" 
	d="
M57.424370,156.774841 
	C35.610134,136.549133 25.161875,112.062225 28.061171,82.582100 
	C30.192734,60.908279 50.116665,44.707703 70.146332,48.047230 
	C75.152542,48.881912 79.867561,51.392132 84.865524,52.370739 
	C88.579140,53.097855 92.665375,53.242092 96.350891,52.492203 
	C102.318474,51.277988 107.989159,48.249615 113.970703,47.530655 
	C127.680191,45.882824 139.408203,50.221901 148.299637,61.261314 
	C124.685715,83.901657 126.004089,103.332916 152.391113,121.052582 
	C147.600479,134.481781 140.546082,146.531052 129.519043,155.872147 
	C123.845543,160.678207 116.958038,161.368881 110.301483,158.387390 
	C98.497917,153.100510 87.068375,153.080551 75.291817,158.507309 
	C69.447990,161.200211 63.300350,160.796555 57.424370,156.774841 
z"/>
<path fill="#060606" opacity="1.000000" stroke="none" 
	d="
M94.937767,28.050190 
	C101.099007,18.605202 109.607361,13.543318 120.274643,11.871218 
	C125.013184,25.792391 106.674850,48.814678 90.219345,46.625618 
	C89.399063,39.977638 91.418060,34.019825 94.937767,28.050190 
z"/>
</svg>