<svg version="1.1" id="Layer_1" xmlns="http://www.w3.org/2000/svg" xmlns:xlink="http://www.w3.org/1999/xlink" x="0px" y="0px"
	 width="100%" viewBox="0 0 204 192" enable-background="new 0 0 204 192" xml:space="preserve">
<path fill="#FAFAFD" opacity="1.000000" stroke="none" 
	d="
M205.000000,46.000000 
	C205.000000,95.333336 205.000000,144.166672 205.000000,193.000000 
	C137.000000,193.000000 69.000000,193.000000 1.000000,193.000000 
	C1.000000,129.000000 1.000000,65.000000 1.000000,1.000000 
	C69.000000,1.000000 137.000000,1.000000 205.000000,1.000000 
	C205.000000,15.833333 205.000000,30.666666 205.000000,46.000000 
M33.975803,190.998520 
	C79.466003,191.024963 124.956207,191.052933 170.446411,191.065750 
	C171.270844,191.065994 172.095337,190.885162 173.667084,190.851837 
	C187.373871,188.379608 197.214478,175.915680 197.065277,160.250824 
	C196.667496,118.485977 196.545776,76.709389 197.138870,34.949184 
	C197.345810,20.377455 189.160095,5.506870 172.024216,3.001471 
	C126.534019,2.975024 81.043831,2.947047 35.553631,2.934227 
	C34.729195,2.933995 33.904709,3.114820 32.332943,3.148157 
	C16.456869,7.573511 9.073914,17.186934 9.071882,33.478012 
	C9.066532,76.405029 9.052185,119.332062 9.080170,162.259064 
	C9.089885,177.161301 18.191046,187.918091 33.975803,190.998520 
z"/>
<path fill="#0238C1" opacity="1.000000" stroke="none" 
	d="
M172.930786,3.213257 
	C189.160095,5.506870 197.345810,20.377455 197.138870,34.949184 
	C196.545776,76.709389 196.667496,118.485977 197.065277,160.250824 
	C197.214478,175.915680 187.373871,188.379608 172.970169,190.573212 
	C171.286423,190.195938 170.299622,190.011322 169.312759,190.010986 
	C125.329994,189.996704 81.347221,189.991180 37.364494,190.031738 
	C35.932514,190.033051 34.500984,190.524033 33.069241,190.786743 
	C18.191046,187.918091 9.089885,177.161301 9.080170,162.259064 
	C9.052185,119.332062 9.066532,76.405029 9.071882,33.478012 
	C9.073914,17.186934 16.456869,7.573511 33.029854,3.426788 
	C34.713593,3.804080 35.700397,3.988720 36.687260,3.989042 
	C80.670021,4.003362 124.652802,4.008893 168.635529,3.968344 
	C170.067520,3.967024 171.499039,3.476002 172.930786,3.213257 
M27.356936,25.260612 
	C25.566757,27.842138 23.776581,30.423662 21.656286,33.620750 
	C20.431683,37.086239 19.207081,40.551723 17.675123,44.704617 
	C17.120272,47.799969 16.565418,50.895325 16.004253,54.835358 
	C16.129276,63.022266 17.481308,63.950512 24.981266,61.145489 
	C30.559769,59.059097 36.132706,56.946865 41.774586,55.043102 
	C54.766361,50.659229 67.806648,46.419350 80.811600,42.074188 
	C89.134644,39.293335 97.393028,36.310757 105.769958,33.706676 
	C107.351120,33.215145 109.354103,34.080563 111.041534,35.025280 
	C104.951073,46.213436 107.600662,58.607803 106.553703,70.928787 
	C101.427055,70.928787 96.691750,70.928787 91.643982,70.928787 
	C91.643982,79.030975 91.637894,86.644730 91.647560,94.258453 
	C91.650604,96.652641 92.624573,97.966537 95.272232,97.693840 
	C98.503052,97.361076 101.750374,97.188614 104.997040,97.891327 
	C104.997940,120.155663 104.962410,142.420181 105.070663,164.683990 
	C105.079094,166.417068 106.094414,168.145233 107.138191,170.474304 
	C113.835457,170.601990 120.533257,170.841599 127.229774,170.810074 
	C130.568848,170.794357 133.905594,170.282455 137.991013,169.755432 
	C138.327484,168.053955 138.951630,166.353378 138.956879,164.650879 
	C139.025528,142.416321 139.006546,120.181503 139.912094,97.717918 
	C144.839874,97.369095 149.781586,97.141815 154.684860,96.579407 
	C155.802658,96.451187 157.594925,95.268471 157.707230,94.395004 
	C158.694687,86.714592 159.372055,78.994324 160.202637,70.670578 
	C152.169174,70.670578 144.763916,70.670578 137.419220,70.670578 
	C137.256638,69.629921 137.115921,69.148247 137.116531,68.666763 
	C137.121475,64.835365 137.061295,61.000744 137.196609,57.173317 
	C137.450729,49.985489 139.397964,48.064278 146.568954,47.912872 
	C150.989624,47.819538 155.413864,47.895592 159.980103,47.895592 
	C159.980103,38.741268 159.980103,30.422972 159.441406,21.470842 
	C155.292145,21.308487 151.142883,21.146132 147.116547,20.282150 
	C150.419296,18.386765 153.722061,16.491379 157.024811,14.595993 
	C156.898849,13.834798 156.772903,13.073603 156.646942,12.312407 
	C151.096466,11.876328 145.546005,11.440248 139.059174,11.002685 
	C129.372055,11.002753 119.684929,11.002822 109.060959,10.999239 
	C100.041199,10.998108 91.021446,10.996977 81.072014,10.989996 
	C76.714119,10.995516 72.356224,11.001037 67.062614,10.988977 
	C55.626488,10.349106 44.435802,11.025633 34.792870,18.174545 
	C32.241779,20.065832 30.217237,22.667366 27.356936,25.260612 
M89.999695,90.192116 
	C89.999695,91.754509 89.999695,93.316910 89.999695,94.879303 
	C90.203194,94.874542 90.406685,94.869789 90.610184,94.865028 
	C90.610184,87.361740 90.610184,79.858452 90.610184,72.355164 
	C90.406685,72.356865 90.203194,72.358574 89.999695,72.360275 
	C89.999695,77.996597 89.999695,83.632927 89.999695,90.192116 
z"/>
<path fill="#0000BA" opacity="1.000000" stroke="none" 
	d="
M33.522522,190.892639 
	C34.500984,190.524033 35.932514,190.033051 37.364494,190.031738 
	C81.347221,189.991180 125.329994,189.996704 169.312759,190.010986 
	C170.299622,190.011322 171.286423,190.195938 172.596527,190.541702 
	C172.095337,190.885162 171.270844,191.065994 170.446411,191.065750 
	C124.956207,191.052933 79.466003,191.024963 33.522522,190.892639 
z"/>
<path fill="#0000BA" opacity="1.000000" stroke="none" 
	d="
M172.477509,3.107365 
	C171.499039,3.476002 170.067520,3.967024 168.635529,3.968344 
	C124.652802,4.008893 80.670021,4.003362 36.687260,3.989042 
	C35.700397,3.988720 34.713593,3.804080 33.403503,3.458291 
	C33.904709,3.114820 34.729195,2.933995 35.553631,2.934227 
	C81.043831,2.947047 126.534019,2.975024 172.477509,3.107365 
z"/>
<path fill="#FDFDFE" opacity="1.000000" stroke="none" 
	d="
M137.243378,169.994995 
	C133.905594,170.282455 130.568848,170.794357 127.229774,170.810074 
	C120.533257,170.841599 113.835457,170.601990 106.960815,169.773285 
	C106.728836,145.692322 106.674240,122.312378 106.718338,98.640419 
	C106.548012,97.912102 106.278976,97.475792 105.764618,96.911514 
	C105.343048,96.837975 105.166809,96.892403 104.990562,96.946823 
	C101.750374,97.188614 98.503052,97.361076 95.272232,97.693840 
	C92.624573,97.966537 91.650604,96.652641 91.647560,94.258453 
	C91.637894,86.644730 91.643982,79.030975 91.643982,70.928787 
	C96.691750,70.928787 101.427055,70.928787 106.553703,70.928787 
	C107.600662,58.607803 104.951073,46.213436 111.384598,34.477203 
	C116.594429,26.005898 124.681808,23.843729 133.444031,22.102516 
	C142.601654,22.137672 151.290878,22.121174 159.980103,22.104677 
	C159.980103,30.422972 159.980103,38.741268 159.980103,47.895592 
	C155.413864,47.895592 150.989624,47.819538 146.568954,47.912872 
	C139.397964,48.064278 137.450729,49.985489 137.196609,57.173317 
	C137.061295,61.000744 137.121475,64.835365 137.116531,68.666763 
	C137.115921,69.148247 137.256638,69.629921 137.419220,70.670578 
	C144.763916,70.670578 152.169174,70.670578 160.202637,70.670578 
	C159.372055,78.994324 158.694687,86.714592 157.707230,94.395004 
	C157.594925,95.268471 155.802658,96.451187 154.684860,96.579407 
	C149.781586,97.141815 144.839874,97.369095 139.299225,97.736481 
	C138.686356,97.755043 138.325821,97.860695 138.214859,97.569962 
	C137.821243,97.521210 137.538574,97.763176 137.198013,98.470108 
	C137.174545,122.621712 137.208969,146.308350 137.243378,169.994995 
z"/>
<path fill="#093EC3" opacity="1.000000" stroke="none" 
	d="
M132.975647,22.050865 
	C124.681808,23.843729 116.594429,26.005898 111.445053,34.124485 
	C109.354103,34.080563 107.351120,33.215145 105.769958,33.706676 
	C97.393028,36.310757 89.134644,39.293335 80.811600,42.074188 
	C67.806648,46.419350 54.766361,50.659229 41.774586,55.043102 
	C36.132706,56.946865 30.559769,59.059097 24.981266,61.145489 
	C17.481308,63.950512 16.129276,63.022266 16.421436,54.415977 
	C21.362207,52.582298 25.896978,51.202637 30.407232,49.747009 
	C42.646294,45.797012 54.916939,41.938763 67.097160,37.814091 
	C82.433006,32.620808 97.688972,27.191849 112.985100,21.880976 
	C117.492966,20.315828 122.098282,19.000015 126.516823,17.217625 
	C131.099503,15.369022 135.509827,13.093168 139.995529,11.004170 
	C145.546005,11.440248 151.096466,11.876328 156.646942,12.312407 
	C156.772903,13.073603 156.898849,13.834798 157.024811,14.595993 
	C153.722061,16.491379 150.419296,18.386765 146.592255,20.637260 
	C141.703842,21.345203 137.339752,21.698034 132.975647,22.050865 
z"/>
<path fill="#1245C5" opacity="1.000000" stroke="none" 
	d="
M139.527344,11.003429 
	C135.509827,13.093168 131.099503,15.369022 126.516823,17.217625 
	C122.098282,19.000015 117.492966,20.315828 112.985100,21.880976 
	C97.688972,27.191849 82.433006,32.620808 67.097160,37.814091 
	C54.916939,41.938763 42.646294,45.797012 30.407232,49.747009 
	C25.896978,51.202637 21.362207,52.582298 16.424591,53.993637 
	C16.565418,50.895325 17.120272,47.799969 18.220795,44.308731 
	C22.745613,42.811687 26.780624,41.878109 30.692205,40.574245 
	C38.668373,37.915527 46.592876,35.098888 54.512089,32.272835 
	C72.261658,25.938715 90.001480,19.576973 107.715996,13.145845 
	C108.617157,12.818684 109.243507,11.734571 109.997803,11.002892 
	C119.684929,11.002822 129.372055,11.002753 139.527344,11.003429 
z"/>
<path fill="#1C4DC8" opacity="1.000000" stroke="none" 
	d="
M109.529381,11.001066 
	C109.243507,11.734571 108.617157,12.818684 107.715996,13.145845 
	C90.001480,19.576973 72.261658,25.938715 54.512089,32.272835 
	C46.592876,35.098888 38.668373,37.915527 30.692205,40.574245 
	C26.780624,41.878109 22.745613,42.811687 18.374470,43.965031 
	C19.207081,40.551723 20.431683,37.086239 22.206171,33.305222 
	C31.192682,30.150536 39.639629,27.341600 48.063259,24.464388 
	C58.063900,21.048523 68.067978,17.639118 78.008568,14.054964 
	C79.511841,13.512950 80.679039,12.038817 82.001686,10.995844 
	C91.021446,10.996977 100.041199,10.998108 109.529381,11.001066 
z"/>
<path fill="#2352CA" opacity="1.000000" stroke="none" 
	d="
M81.536850,10.992920 
	C80.679039,12.038817 79.511841,13.512950 78.008568,14.054964 
	C68.067978,17.639118 58.063900,21.048523 48.063259,24.464388 
	C39.639629,27.341600 31.192682,30.150536 22.371229,32.997444 
	C23.776581,30.423662 25.566757,27.842138 27.875435,25.361885 
	C29.172806,25.377922 29.995800,25.426851 30.723938,25.187370 
	C41.996155,21.479996 53.275124,17.790529 64.493774,13.926346 
	C65.837746,13.463427 66.838493,12.004064 67.998329,11.006557 
	C72.356224,11.001037 76.714119,10.995516 81.536850,10.992920 
z"/>
<path fill="#2756CA" opacity="1.000000" stroke="none" 
	d="
M67.530472,10.997766 
	C66.838493,12.004064 65.837746,13.463427 64.493774,13.926346 
	C53.275124,17.790529 41.996155,21.479996 30.723938,25.187370 
	C29.995800,25.426851 29.172806,25.377922 28.172426,25.202965 
	C30.217237,22.667366 32.241779,20.065832 34.792870,18.174545 
	C44.435802,11.025633 55.626488,10.349106 67.530472,10.997766 
z"/>
<path fill="#002DBF" opacity="1.000000" stroke="none" 
	d="
M137.617188,169.875214 
	C137.208969,146.308350 137.174545,122.621712 137.467285,98.447250 
	C137.971558,97.926521 138.148682,97.893608 138.325821,97.860695 
	C138.325821,97.860695 138.686356,97.755043 138.847992,97.850891 
	C139.006546,120.181503 139.025528,142.416321 138.956879,164.650879 
	C138.951630,166.353378 138.327484,168.053955 137.617188,169.875214 
z"/>
<path fill="#002DBF" opacity="1.000000" stroke="none" 
	d="
M106.619637,98.932426 
	C106.674240,122.312378 106.728836,145.692322 106.712593,169.473984 
	C106.094414,168.145233 105.079094,166.417068 105.070663,164.683990 
	C104.962410,142.420181 104.997940,120.155663 104.993805,97.419075 
	C105.166809,96.892403 105.343048,96.837975 105.765221,97.171127 
	C106.213974,98.016602 106.416809,98.474518 106.619637,98.932426 
z"/>
<path fill="#0022BD" opacity="1.000000" stroke="none" 
	d="
M133.444031,22.102516 
	C137.339752,21.698034 141.703842,21.345203 146.530792,20.988075 
	C151.142883,21.146132 155.292145,21.308487 159.710754,21.787760 
	C151.290878,22.121174 142.601654,22.137672 133.444031,22.102516 
z"/>
<path fill="#0027BE" opacity="1.000000" stroke="none" 
	d="
M89.999695,89.730682 
	C89.999695,83.632927 89.999695,77.996597 89.999695,72.360275 
	C90.203194,72.358574 90.406685,72.356865 90.610184,72.355164 
	C90.610184,79.858452 90.610184,87.361740 90.610184,94.865028 
	C90.406685,94.869789 90.203194,94.874542 89.999695,94.879303 
	C89.999695,93.316910 89.999695,91.754509 89.999695,89.730682 
z"/>
<path fill="#0238C1" opacity="1.000000" stroke="none" 
	d="
M106.718338,98.640419 
	C106.416809,98.474518 106.213974,98.016602 106.010544,97.299088 
	C106.278976,97.475792 106.548012,97.912102 106.718338,98.640419 
z"/>
<path fill="#0238C1" opacity="1.000000" stroke="none" 
	d="
M138.214859,97.569962 
	C138.148682,97.893608 137.971558,97.926521 137.525177,97.982285 
	C137.538574,97.763176 137.821243,97.521210 138.214859,97.569962 
z"/>
</svg>