<svg version="1.1" id="Layer_1" xmlns="http://www.w3.org/2000/svg" xmlns:xlink="http://www.w3.org/1999/xlink" x="0px" y="0px"
	 width="100%" viewBox="0 0 204 192" enable-background="new 0 0 204 192" xml:space="preserve">
<path fill="#FFFEFE" opacity="1.000000" stroke="none" 
	d="
M142.000000,193.000000 
	C94.666672,193.000000 47.833340,193.000000 1.000006,193.000000 
	C1.000004,129.000000 1.000004,65.000015 1.000002,1.000015 
	C68.999992,1.000010 136.999985,1.000010 204.999969,1.000005 
	C204.999985,64.999985 204.999985,128.999969 205.000000,192.999969 
	C184.166672,193.000000 163.333328,193.000000 142.000000,193.000000 
M137.573517,110.067879 
	C136.633972,118.564255 131.523636,124.531303 124.847450,130.025955 
	C121.995537,131.389084 119.252594,133.084244 116.274132,134.061783 
	C95.967087,140.726654 75.015678,131.003525 66.575249,108.927483 
	C63.963123,100.693405 64.252876,92.478455 67.127815,83.602707 
	C71.838150,71.428055 80.371887,63.118500 92.859070,59.429363 
	C105.738953,55.624203 117.436562,58.584442 126.181038,66.140182 
	C133.051514,60.431622 139.558640,55.024963 146.936188,48.895081 
	C139.995560,44.614796 134.608521,40.532490 128.618423,37.747051 
	C113.244019,30.597837 97.164917,30.877815 81.503632,36.244427 
	C65.220947,41.823978 52.818745,52.452194 45.128357,69.018181 
	C40.855244,77.590027 38.554314,86.691048 38.601288,96.241455 
	C38.651970,106.545776 40.134041,116.601036 45.821835,126.217567 
	C51.438183,137.674896 60.008907,146.047928 70.940323,152.751358 
	C93.500267,166.585663 126.174812,163.976334 145.883163,145.783554 
	C161.654160,130.180923 166.018768,110.929039 164.143646,89.549683 
	C163.828217,85.953285 162.772964,84.779831 159.086624,84.819611 
	C141.800400,85.006126 124.511024,84.894295 107.222824,84.919350 
	C105.963203,84.921173 104.703934,85.164047 103.348778,85.304794 
	C103.348778,93.100983 103.348778,100.549408 103.257164,108.779037 
	C103.959045,109.098427 104.661423,109.696625 105.362732,109.695381 
	C115.950066,109.676674 126.537270,109.579224 137.573517,110.067879 
z"/>
<path fill="#FF4132" opacity="1.000000" stroke="none" 
	d="
M45.704018,68.560997 
	C52.818745,52.452194 65.220947,41.823978 81.503632,36.244427 
	C97.164917,30.877815 113.244019,30.597837 128.618423,37.747051 
	C134.608521,40.532490 139.995560,44.614796 146.936188,48.895081 
	C139.558640,55.024963 133.051514,60.431622 126.181038,66.140182 
	C117.436562,58.584442 105.738953,55.624203 92.859070,59.429363 
	C80.371887,63.118500 71.838150,71.428055 66.626984,83.800537 
	C59.318775,78.852570 52.511395,73.706787 45.704018,68.560997 
z"/>
<path fill="#03AA4C" opacity="1.000000" stroke="none" 
	d="
M145.290787,146.023590 
	C126.174812,163.976334 93.500267,166.585663 70.940323,152.751358 
	C60.008907,146.047928 51.438183,137.674896 46.192650,125.710014 
	C53.267208,120.014572 59.970959,114.826683 66.674706,109.638794 
	C75.015678,131.003525 95.967087,140.726654 116.274132,134.061783 
	C119.252594,133.084244 121.995537,131.389084 125.401657,130.277176 
	C132.400833,135.693466 138.845810,140.858521 145.290787,146.023590 
z"/>
<path fill="#0487F9" opacity="1.000000" stroke="none" 
	d="
M145.586975,145.903564 
	C138.845810,140.858521 132.400833,135.693466 125.735092,130.240784 
	C131.523636,124.531303 136.633972,118.564255 137.438461,109.492699 
	C136.032761,108.611473 134.764008,108.049286 133.491196,108.039970 
	C123.444153,107.966415 113.396347,107.998352 103.348778,107.997833 
	C103.348778,100.549408 103.348778,93.100983 103.348778,85.304794 
	C104.703934,85.164047 105.963203,84.921173 107.222824,84.919350 
	C124.511024,84.894295 141.800400,85.006126 159.086624,84.819611 
	C162.772964,84.779831 163.828217,85.953285 164.143646,89.549683 
	C166.018768,110.929039 161.654160,130.180923 145.586975,145.903564 
z"/>
<path fill="#FEBD03" opacity="1.000000" stroke="none" 
	d="
M66.624977,109.283142 
	C59.970959,114.826683 53.267208,120.014572 46.234184,125.366295 
	C40.134041,116.601036 38.651970,106.545776 38.601288,96.241455 
	C38.554314,86.691048 40.855244,77.590027 45.416187,68.789589 
	C52.511395,73.706787 59.318775,78.852570 66.431938,84.138168 
	C64.252876,92.478455 63.963123,100.693405 66.624977,109.283142 
z"/>
<path fill="#0077F8" opacity="1.000000" stroke="none" 
	d="
M103.302971,108.388435 
	C113.396347,107.998352 123.444153,107.966415 133.491196,108.039970 
	C134.764008,108.049286 136.032761,108.611473 137.213959,109.208878 
	C126.537270,109.579224 115.950066,109.676674 105.362732,109.695381 
	C104.661423,109.696625 103.959045,109.098427 103.302971,108.388435 
z"/>
</svg>